<svg xmlns="http://www.w3.org/2000/svg" viewBox="0 0 31 31"><path d="M1 1h7v7h-7zM13 1h4v1h1v1h-1v2h1v-1h1v1h1v-2h2v1h-1v1h1v4h-3v-2h1v1h1v-2h-2v1h-1v-1h-2v-1h-1v-1h1v-1h-1v1h-1v-2h-1zM19 1h3v1h-2v1h-1zM23 1h7v7h-7zM2 2v5h5v-5zM12 2h1v1h-1zM24 2v5h5v-5zM3 3h3v3h-3zM9 3h1v3h1v1h-1v1h1v-1h1v5h-1v-3h-2zM25 3h3v3h-3zM12 4h1v1h-1zM11 5h1v1h-1zM13 5h1v1h-1zM13 7h1v1h-1zM15 7h1v2h-1zM17 7h1v2h1v1h-2zM1 9h1v1h1v-1h5v1h-1v1h-1v-1h-2v1h-1v2h1v-1h1v-1h1v1h1v1h1v1h-2v2h1v1h-6v-2h1v-1h-1zM23 9h5v1h-2v1h-3v1h-1v-1h-1v-1h2zM9 10h1v1h-1zM13 10h4v1h1v1h-1v2h1v1h-2v-1h-1v-1h1v-1h-1v1h-2v-1h1v-1h-1zM19 10h1v2h-1zM29 10h1v1h-1zM7 11h1v1h-1zM26 11h2v1h-1v1h-2v-1h1zM8 12h2v1h-2zM10 13h1v2h1v1h-3v-1h1zM12 13h1v1h1v2h-1v-1h-1zM18 13h1v1h-1zM24 13h1v1h1v1h-2v1h-1v-1h-1v-1h2zM27 13h1v2h-1zM3 14v1h2v-1zM20 14h1v1h-1zM29 14h1v1h-1zM7 15h1v1h-1zM18 15h2v1h-2zM21 15h1v2h-1zM8 16h1v1h1v1h-3v-1h1zM12 16h1v3h1v-1h3v2h-2v1h-1v-1h-1v1h1v2h-2v-1h-1v1h-2v-1h1v-1h-1v-1h1v-2h2zM15 16h1v1h-1zM17 16h1v1h-1zM25 16h2v1h-2zM18 17h1v1h1v-1h1v1h5v1h1v2h-1v2h1v-2h2v-1h1v2h-1v1h-1v1h-2v2h-1v1h1v1h-1v1h-1v1h-2v-1h1v-1h-1v1h-1v-2h3v-1h-3v-1h-1v-1h-1v-2h1v1h1v-2h3v-2h-1v1h-2v-1h-1v1h-2zM27 17h2v1h1v1h-3zM1 18h5v1h2v1h-1v1h-1v-1h-2v-1h-2v3h-1zM3 20h1v2h-1zM11 20v1h1v-1zM17 20h1v1h-1zM7 21h2v1h-2zM15 21h1v1h-1zM18 21h1v1h-1zM17 22h1v2h-1v2h-1v-1h-1v-1h1v-1h1zM22 22v3h3v-3zM1 23h7v7h-7zM11 23h1v1h2v1h-3zM23 23h1v1h-1zM2 24v5h5v-5zM9 24h1v2h6v1h1v1h1v1h-1v1h-1v-1h-1v1h-1v-3h-1v1h-1v1h1v1h-2v-1h-1v-1h1v-1h-1v1h-1zM28 24h1v2h1v1h-1v2h-1v-3h-1v-1h1zM3 25h3v3h-3zM18 25h1v1h2v1h-2v1h-1v-1h-1v-1h1zM19 28h1v1h-1zM26 28h1v2h-2v-1h1zM9 29h1v1h-1zM18 29h1v1h-1zM20 29h1v1h-1z"/></svg>